<?xml version="1.0" standalone="no"?>
<!DOCTYPE svg PUBLIC "-//W3C//DTD SVG 20010904//EN"
 "http://www.w3.org/TR/2001/REC-SVG-20010904/DTD/svg10.dtd">
<svg version="1.0" xmlns="http://www.w3.org/2000/svg"
 width="480.000000pt" height="480.000000pt" viewBox="0 0 480.000000 480.000000"
 preserveAspectRatio="xMidYMid meet">
<metadata>
Created by potrace 1.11, written by Peter Selinger 2001-2013
</metadata>
<g transform="translate(0.000000,480.000000) scale(0.100000,-0.100000)"
fill="#000000" stroke="none">
<path d="M454 4785 c-91 -22 -207 -65 -271 -101 -34 -19 -68 -34 -77 -34 -9 0
-37 -19 -61 -41 l-45 -42 0 -127 0 -127 43 -42 c40 -40 40 -42 12 -30 -16 7
-36 18 -44 23 -12 9 -13 -3 -9 -77 2 -48 10 -93 16 -99 7 -7 12 -18 12 -24 0
-7 17 -40 37 -75 36 -60 36 -62 17 -76 -10 -8 -33 -13 -51 -11 l-33 4 0 -1138
c0 -778 3 -1138 10 -1138 6 0 22 8 37 17 24 16 26 16 39 -2 19 -26 18 -29 -18
-43 -27 -10 -34 -9 -41 3 -15 28 -25 15 -24 -30 1 -25 6 -44 12 -44 5 1 21 1
34 0 31 -1 17 -18 -19 -23 -21 -3 -25 -9 -28 -43 -3 -38 -2 -39 12 -20 14 18
15 18 16 3 0 -13 8 -18 26 -18 14 0 23 -4 20 -9 -3 -5 1 -14 9 -21 12 -10 13
-16 4 -26 -9 -11 -8 -14 2 -14 8 0 25 -3 38 -7 21 -5 22 -4 12 16 -10 17 -8
27 6 53 14 23 15 32 6 35 -7 3 -13 14 -13 24 0 11 -5 29 -10 40 -8 15 -7 19 4
19 18 0 56 47 56 70 0 9 11 26 25 38 l24 21 25 -29 c23 -28 76 -43 76 -21 0 4
15 13 33 19 24 7 26 10 11 11 -23 1 -56 31 -35 31 7 0 9 4 6 10 -3 5 6 12 20
16 14 3 29 12 33 20 5 9 12 10 22 4 12 -8 12 -12 3 -18 -9 -6 -10 -17 -4 -38
6 -21 5 -36 -5 -49 -12 -16 -11 -20 5 -34 16 -14 16 -18 5 -29 -10 -9 -11 -17
-4 -25 47 -57 60 -76 60 -86 0 -6 5 -11 10 -11 6 0 10 -3 10 -7 0 -12 -52 -8
-77 5 -25 14 -34 15 -32 5 4 -22 -16 -76 -32 -86 -11 -7 -19 -17 -19 -24 0 -7
-7 -10 -15 -7 -10 4 -13 2 -10 -8 7 -16 -29 -22 -55 -8 -13 7 -22 4 -35 -10
-21 -23 -75 -44 -75 -29 0 6 -7 17 -15 25 -13 13 -15 13 -15 1 0 -8 -7 -18
-16 -21 -24 -9 -96 -7 -90 3 3 5 -1 11 -9 15 -12 4 -15 -3 -15 -30 0 -22 6
-37 15 -40 8 -4 15 -13 15 -21 0 -9 -6 -13 -15 -9 -13 5 -15 -11 -15 -107 l0
-113 78 3 c237 7 474 4 488 -7 11 -10 14 -9 14 4 0 14 62 15 658 15 361 0 693
-4 737 -9 134 -13 473 -98 476 -118 5 -41 4 -149 -2 -157 -4 -5 -9 -21 -11
-34 -2 -17 -12 -27 -33 -34 -44 -14 -85 -56 -84 -86 0 -14 3 -20 6 -13 7 17
30 15 41 -5 16 -29 42 -8 42 34 0 21 4 44 9 52 13 20 44 6 37 -16 -3 -10 -6
-43 -7 -73 -2 -76 -7 -80 -81 -61 -74 19 -88 27 -88 48 0 9 -6 21 -14 27 -9 7
-16 40 -19 91 -3 44 -11 93 -16 109 -10 23 -15 27 -36 22 -18 -5 -25 -2 -25 7
0 14 -116 53 -175 59 -43 4 -37 22 10 28 22 3 49 11 60 17 18 10 16 12 -15 17
-83 12 -118 14 -170 6 -30 -4 -56 -3 -58 1 -7 17 -62 9 -79 -11 -10 -11 -25
-20 -35 -20 -10 0 -35 -9 -55 -20 -35 -18 -36 -20 -13 -21 14 0 -5 -9 -41 -18
-36 -10 -91 -30 -122 -44 -31 -15 -59 -27 -63 -27 -4 0 -38 -16 -75 -35 -38
-19 -72 -35 -77 -35 -5 0 -9 19 -8 42 0 24 -6 64 -13 91 -12 41 -20 51 -67 77
-49 29 -58 31 -141 28 l-88 -3 50 -32 c28 -18 43 -33 34 -33 -8 0 -19 4 -25 9
-38 34 -354 81 -354 52 0 -20 -44 -51 -72 -51 -35 0 -36 12 -3 30 32 17 34 50
2 50 -30 0 -93 -65 -89 -91 3 -17 -1 -19 -25 -13 -27 6 -27 6 -8 -9 10 -8 24
-14 30 -13 5 2 7 1 2 -1 -4 -3 -7 -11 -7 -18 0 -8 -9 -19 -20 -25 -11 -6 -20
-20 -20 -32 0 -11 -5 -49 -12 -83 -9 -50 -16 -65 -34 -74 -13 -6 -26 -22 -30
-36 -6 -23 -10 -25 -35 -20 -18 4 -29 2 -29 -4 0 -21 -19 -11 -22 11 -2 13 -9
24 -15 24 -7 1 -20 2 -28 3 -14 1 -14 4 0 32 9 17 15 32 13 33 -64 42 -110 47
-167 18 -36 -18 -49 -49 -25 -59 10 -4 12 -17 9 -48 -4 -30 -1 -46 9 -54 12
-10 17 -9 25 7 6 11 7 22 4 26 -3 3 -1 6 5 6 6 0 14 -5 17 -10 8 -13 -3 -50
-15 -50 -5 0 -26 -11 -46 -25 -39 -26 -49 -24 -57 10 -3 11 -5 -82 -6 -207
l-1 -228 138 0 c76 0 142 3 145 7 4 3 -19 21 -52 40 -53 30 -85 63 -61 63 18
0 10 17 -13 27 -16 8 -29 8 -42 0 -15 -8 -22 -5 -36 12 -17 21 -36 30 -24 11
3 -6 2 -10 -4 -10 -5 0 -11 -10 -13 -22 -2 -13 -7 -22 -13 -21 -10 3 -20 206
-11 230 7 18 70 -7 95 -38 16 -20 19 -21 42 -7 46 29 76 30 105 3 15 -14 31
-25 35 -25 5 0 9 -4 9 -10 0 -5 -3 -9 -7 -9 -21 3 -33 -3 -33 -16 0 -9 -7 -27
-17 -41 -15 -24 -15 -25 5 -31 12 -3 22 -10 22 -17 0 -17 63 -43 68 -28 5 17
32 15 32 -3 0 -8 4 -15 9 -15 15 0 22 -32 10 -46 -9 -11 -8 -19 6 -34 17 -19
32 -20 417 -20 336 0 398 2 398 14 0 8 14 26 31 40 l31 26 -7 99 c-6 82 -4
103 9 123 9 14 14 33 10 42 -5 12 0 16 19 16 31 0 43 16 27 34 -21 26 -20 59
2 83 12 13 27 23 33 23 6 0 24 13 40 30 30 31 55 39 55 18 0 -9 4 -8 10 2 8
12 10 12 10 1 0 -8 3 -11 7 -7 5 4 -1 14 -11 22 -11 7 -18 15 -15 16 30 19 52
28 65 28 8 0 30 11 48 25 18 14 35 23 38 20 3 -3 29 5 59 18 30 13 61 22 70
20 9 -2 22 3 29 12 7 8 18 15 25 15 8 0 15 5 17 12 5 13 98 27 124 17 11 -3
26 -3 36 2 9 5 55 12 103 15 l87 7 -13 -22 c-8 -12 -31 -26 -51 -32 -20 -5
-40 -14 -43 -19 -3 -6 -15 -10 -26 -10 -10 0 -19 -4 -19 -10 0 -5 5 -10 11
-10 6 0 22 -9 35 -19 22 -17 23 -20 7 -25 -18 -5 -94 -2 -122 5 -9 2 -17 -5
-19 -16 -2 -11 -9 -23 -15 -27 -8 -5 -8 -10 0 -20 15 -18 26 -82 18 -107 -4
-13 -18 -23 -41 -27 -39 -7 -42 -16 -14 -46 26 -28 25 -32 -5 -46 -33 -15 -32
-32 3 -32 39 1 135 25 173 44 18 9 33 15 33 14 1 -2 6 -13 13 -25 11 -20 10
-22 -29 -28 -22 -4 -56 -14 -75 -21 -25 -11 -39 -12 -53 -4 -14 7 -20 7 -20 0
0 -5 7 -10 15 -10 8 0 15 -4 15 -9 0 -5 9 -11 20 -14 11 -3 20 -13 20 -22 0
-13 7 -15 38 -9 20 3 44 13 52 21 8 8 11 13 5 12 -5 -1 -17 -1 -25 1 -11 1 -9
4 5 10 28 12 115 12 115 0 0 -5 9 -10 21 -10 11 0 30 -5 42 -12 21 -11 17 -14
-48 -44 -57 -27 -65 -33 -42 -33 31 -1 222 45 247 59 13 8 13 9 -2 10 -22 0
-23 9 -1 25 14 10 7 14 -42 26 -47 11 -59 18 -62 36 -2 20 0 21 22 13 16 -6
45 -6 81 1 31 6 58 9 60 7 2 -2 5 -36 8 -76 6 -94 -6 -109 -94 -122 -36 -6
-99 -16 -140 -22 -110 -18 -508 -15 -640 5 -57 9 -109 13 -115 8 -8 -7 -79 -7
-110 -1 -26 6 -35 -1 -31 -22 3 -13 8 -44 11 -70 6 -44 9 -48 33 -48 26 0 27
2 27 50 0 65 17 65 29 0 l10 -50 1515 4 c834 2 1551 7 1593 11 75 6 78 7 72
30 -4 18 -1 25 16 30 12 4 37 17 54 29 18 11 51 32 74 46 l41 25 1 192 0 191
-38 0 c-59 1 -113 13 -105 25 4 6 0 8 -10 4 -9 -3 -26 4 -42 19 -14 13 -29 24
-33 24 -4 0 -31 16 -61 35 -29 19 -57 35 -61 35 -5 0 -16 10 -24 21 -10 14
-21 19 -32 15 -17 -6 -44 9 -44 25 0 5 12 9 28 9 25 1 26 1 7 12 -11 6 -25 17
-32 25 -10 12 -17 9 -49 -21 -21 -20 -41 -36 -45 -36 -4 0 -9 -9 -12 -20 -3
-12 -14 -20 -27 -20 -11 0 -32 -12 -45 -26 -20 -22 -34 -26 -87 -28 -67 -3
-148 -31 -148 -51 0 -7 -6 -15 -14 -18 -10 -4 -12 0 -8 15 4 16 1 19 -19 16
-13 -1 -29 -12 -36 -23 -11 -18 -12 -18 -13 -2 0 9 -8 17 -17 17 -28 0 -141
-39 -116 -39 12 -1 27 -10 33 -21 7 -13 21 -20 40 -20 21 0 28 -4 24 -14 -3
-7 3 -16 13 -20 12 -5 25 2 44 23 15 17 32 31 38 31 7 0 1 -11 -13 -23 -16
-15 -22 -27 -16 -33 6 -6 4 -26 -4 -53 -11 -38 -19 -46 -72 -72 -33 -17 -68
-27 -80 -25 -12 4 -26 -2 -37 -15 -10 -11 -21 -17 -26 -15 -5 3 -9 91 -9 196
l0 190 26 25 c14 15 38 29 52 32 15 2 32 14 39 25 7 11 8 17 2 13 -7 -3 -11 2
-11 15 0 25 -39 42 -80 34 l-30 -6 0 75 c0 42 -5 79 -10 82 -6 4 -8 16 -4 28
4 12 6 61 6 110 -1 66 1 87 11 87 8 0 20 -12 28 -27 14 -28 39 -59 91 -114 15
-15 30 -40 34 -54 l6 -25 427 2 426 3 3 23 c3 18 8 21 23 17 11 -4 40 1 64 11
l46 17 -1 313 c-1 259 -4 314 -15 314 -8 0 -17 5 -21 11 -4 8 0 9 15 4 20 -6
21 -3 21 59 l0 66 -30 0 c-41 0 -41 28 0 36 l30 6 0 1018 0 1018 -27 6 c-14 4
-38 2 -54 -4 -21 -9 -33 -8 -56 3 -24 13 -32 13 -55 1 -20 -10 -33 -11 -57 -3
-24 8 -39 8 -61 -1 -25 -10 -34 -10 -55 4 -23 15 -27 15 -56 0 -27 -13 -36
-14 -56 -3 -19 10 -31 10 -57 1 -27 -10 -40 -10 -61 0 -21 9 -31 9 -46 0 -25
-16 -54 -15 -68 2 -9 11 -5 19 20 40 63 53 101 66 197 66 59 0 94 5 107 14 18
13 17 16 -20 54 -21 23 -43 40 -49 39 -6 -1 -10 6 -10 16 1 9 -4 17 -12 17
-20 0 -27 19 -13 36 9 11 24 14 63 9 30 -4 63 -2 81 5 38 15 75 49 75 70 0 28
-115 110 -155 110 -9 0 -28 -11 -43 -25 -46 -43 -88 -25 -76 33 5 22 1 39 -15
60 -24 34 -26 53 -9 70 9 9 7 16 -6 31 -12 13 -13 19 -4 18 42 -1 69 4 66 15
-8 24 -45 27 -84 6 -33 -17 -43 -19 -76 -9 -40 12 -50 10 -83 -20 -28 -25 -75
-31 -110 -15 -39 18 -94 37 -125 43 -14 3 -32 12 -40 19 -9 7 -41 24 -71 38
-48 21 -57 29 -67 64 -7 21 -12 47 -12 56 0 15 -48 16 -565 16 l-565 0 0 -25
c0 -13 -4 -27 -10 -30 -6 -3 -10 -13 -10 -22 0 -9 3 -13 6 -10 4 3 15 2 25 -3
16 -9 14 -14 -22 -50 -46 -47 -49 -66 -10 -75 16 -3 33 -16 39 -30 7 -14 20
-25 31 -25 11 0 23 -5 27 -12 4 -7 3 -8 -5 -4 -16 10 -52 -3 -49 -18 2 -7 -12
-26 -31 -43 l-33 -31 -37 21 c-58 34 -68 47 -48 62 23 16 21 25 -8 57 -19 21
-34 27 -62 26 -21 -1 -40 5 -47 13 -6 9 -19 18 -28 22 -10 3 -15 12 -13 20 4
8 -8 17 -32 26 -21 7 -47 16 -58 21 -11 4 -49 16 -85 25 -36 9 -75 23 -87 31
-31 19 -79 18 -208 -7 -115 -22 -195 -50 -162 -57 9 -2 17 -7 17 -12 0 -13
-37 -22 -61 -15 -19 6 -20 3 -17 -37 3 -41 4 -43 38 -46 53 -4 80 -11 80 -22
0 -6 -8 -10 -17 -11 -10 -1 2 -7 27 -13 25 -7 61 -11 80 -8 25 3 40 -1 49 -12
7 -9 21 -16 31 -16 10 0 23 -7 30 -15 11 -13 9 -15 -13 -15 -22 0 -25 -4 -25
-35 0 -24 5 -35 15 -35 8 0 11 -5 7 -12 -4 -6 2 -17 12 -25 17 -13 16 -14 -17
-12 -22 2 -44 -3 -54 -11 -10 -8 -21 -14 -24 -13 -3 2 -5 -20 -3 -47 4 -77
-45 -132 -100 -114 -18 5 -18 8 11 36 24 24 31 39 31 69 0 57 -28 68 -106 41
-92 -32 -119 -34 -145 -11 -25 21 -39 18 -19 -6 10 -13 9 -15 -8 -15 -12 0
-22 9 -26 23 -5 18 -8 20 -16 7 -8 -12 -10 -11 -10 8 0 19 -4 22 -22 18 -13
-3 -17 -3 -10 0 6 3 12 10 12 15 0 12 -37 12 -45 -1 -3 -5 -14 -10 -24 -10
-16 0 -17 12 -17 121 1 108 -1 122 -18 135 -18 13 -18 15 -3 27 15 11 21 69
18 165 l-1 22 -362 -1 c-254 -1 -378 -5 -414 -14z m463 -56 c43 -17 114 -42
158 -56 44 -13 86 -26 93 -29 19 -6 5 -24 -18 -24 -11 0 -61 14 -112 30 -51
17 -97 30 -103 30 -13 -1 37 -39 51 -40 6 0 18 -7 25 -16 12 -15 11 -16 -11
-8 -40 13 -70 8 -96 -17 -22 -20 -27 -21 -61 -10 -34 11 -64 18 -85 20 -17 2
-7 29 13 34 15 4 19 11 15 25 -8 24 25 92 44 92 5 0 44 -14 87 -31z m805 -51
c-5 -20 -3 -21 53 -14 63 7 66 0 9 -20 -37 -13 -64 -9 -64 7 0 5 -9 9 -20 9
-22 0 -28 25 -7 33 26 11 35 7 29 -15z m298 12 c12 -8 9 -10 -13 -10 -16 0
-26 4 -22 10 8 12 16 12 35 0z m-1360 -69 l45 -8 -32 -8 c-18 -4 -35 -16 -38
-26 -4 -11 -13 -19 -21 -19 -7 0 -19 -9 -26 -20 -14 -23 -34 -26 -41 -7 -3 9
-9 7 -24 -5 -11 -10 -31 -18 -44 -18 -50 0 -163 -99 -153 -133 5 -16 3 -17
-15 -8 -26 14 -26 16 0 57 18 30 35 42 106 78 27 13 29 24 8 32 -8 4 -15 10
-15 15 0 5 7 9 15 9 8 0 15 7 15 16 0 13 7 15 35 10 29 -6 35 -4 35 10 0 9 8
23 18 31 17 13 31 13 132 -6z m2469 -56 c8 0 16 -5 18 -11 5 -14 -52 -38 -72
-30 -21 8 -19 27 5 33 11 3 17 10 13 16 -4 6 -1 7 8 1 8 -5 20 -9 28 -9z
m-459 -35 c9 -16 5 -18 -30 -16 -22 0 -40 4 -40 9 0 4 -7 7 -15 7 -20 0 -19
10 2 25 21 16 69 1 83 -25z m-915 20 c3 -5 2 -10 -4 -10 -5 0 -13 5 -16 10 -3
6 -2 10 4 10 5 0 13 -4 16 -10z m-960 -34 l26 -34 -26 -37 c-14 -21 -25 -42
-25 -46 0 -17 -29 -9 -54 14 -27 26 -20 47 17 47 15 0 18 6 16 33 -3 29 5 57
16 57 2 0 16 -15 30 -34z m2620 -16 c0 -19 -4 -24 -20 -22 -26 5 -47 34 -32
44 24 16 52 4 52 -22z m-780 0 c3 -5 -3 -10 -15 -10 -12 0 -18 5 -15 10 3 6
10 10 15 10 5 0 12 -4 15 -10z m1105 -31 c27 -20 61 -92 49 -103 -2 -2 -19 -7
-37 -11 -28 -6 -34 -4 -38 12 -3 10 -21 29 -40 42 -28 19 -34 30 -34 59 0 34
1 35 34 29 19 -3 49 -16 66 -28z m340 5 c0 -8 -5 -12 -10 -9 -6 4 -8 11 -5 16
9 14 15 11 15 -7z m-3460 -7 c0 -14 -35 -69 -48 -76 -9 -5 -13 -13 -9 -17 4
-5 16 -3 26 3 26 16 61 5 61 -18 0 -11 -11 -24 -25 -31 -14 -6 -25 -19 -25
-29 0 -10 -4 -21 -10 -24 -5 -3 -11 -21 -11 -38 -1 -18 -3 -25 -6 -16 -2 8
-25 21 -50 28 -69 18 -77 27 -52 62 17 24 18 29 5 29 -12 0 -16 11 -16 45 0
46 2 48 50 46 14 -1 39 8 55 19 27 18 55 26 55 17z m1750 -37 c0 -5 -4 -10 -9
-10 -6 0 -13 5 -16 10 -3 6 1 10 9 10 9 0 16 -4 16 -10z m-463 -92 c-17 -11
-37 -10 -37 2 0 6 7 10 15 10 8 0 15 6 15 13 0 8 3 7 10 -3 6 -9 5 -17 -3 -22z
m-1599 -32 c3 -12 -1 -17 -10 -14 -7 3 -15 13 -16 22 -3 12 1 17 10 14 7 -3
15 -13 16 -22z m983 -16 c11 -30 28 -41 30 -17 0 7 3 6 6 -3 4 -8 13 -21 20
-29 10 -9 11 -17 4 -24 -8 -8 -6 -16 5 -29 15 -16 15 -20 -4 -58 -17 -34 -18
-47 -9 -78 21 -73 81 -127 102 -92 10 17 228 -15 222 -33 -7 -23 -35 -31 -61
-17 -22 11 -32 11 -66 0 -32 -11 -42 -11 -55 0 -13 11 -23 11 -55 0 -32 -11
-42 -11 -55 0 -13 11 -23 11 -54 0 -29 -9 -43 -10 -60 -1 -19 11 -21 20 -21
114 0 103 -8 131 -36 120 -22 -8 -16 11 7 25 19 12 20 19 14 66 -5 42 -3 57
10 70 25 24 45 19 56 -14z m-883 -7 c2 -13 -2 -23 -8 -23 -8 0 -11 -11 -8 -31
4 -26 2 -30 -14 -26 -15 4 -17 2 -9 -7 12 -14 5 -26 -16 -26 -9 0 -12 7 -9 18
3 9 -3 33 -13 52 l-19 35 27 18 c34 23 65 18 69 -10z m1372 17 c0 -5 -4 -10
-9 -10 -6 0 -13 5 -16 10 -3 6 1 10 9 10 9 0 16 -4 16 -10z m2340 1 c0 -11
-26 -22 -34 -14 -12 12 -5 23 14 23 11 0 20 -4 20 -9z m-2273 -46 c-7 -16 -37
-21 -37 -5 0 10 32 31 39 25 2 -2 1 -11 -2 -20z m1946 -2 c-3 -7 -9 -10 -14
-7 -14 8 -11 21 5 21 8 0 12 -6 9 -14z m512 0 c20 -15 19 -15 -5 -9 -14 3 -32
6 -40 6 -13 0 -13 1 0 10 19 13 21 12 45 -7z m-222 -8 c-6 -17 -25 -15 -31 3
-2 7 5 12 17 12 14 0 19 -5 14 -15z m-1540 -28 c34 -19 37 -24 31 -53 -12 -65
5 -76 196 -119 41 -10 81 -22 88 -27 18 -15 15 -31 -5 -24 -17 7 -216 44 -283
53 -68 10 -16 -15 65 -31 44 -9 111 -22 148 -30 37 -8 74 -13 82 -9 8 3 15 0
15 -5 0 -6 15 -12 33 -14 17 -2 31 -7 30 -13 -4 -17 -81 -17 -162 -1 -42 8
-96 18 -121 21 -54 8 -211 48 -226 57 -6 4 -10 41 -8 95 3 147 -1 135 42 127
20 -3 54 -16 75 -27z m-2363 -33 c25 -14 37 -23 27 -20 -10 3 -24 6 -30 6 -7
0 -23 9 -37 20 -35 27 -14 24 40 -6z m1390 1 c14 -19 14 -19 -2 -6 -10 7 -18
18 -18 24 0 6 1 8 3 6 1 -2 9 -13 17 -24z m2006 -41 c34 -9 47 -36 29 -60 -12
-16 -16 -17 -24 -5 -5 8 -16 11 -24 8 -18 -7 -42 17 -33 32 4 5 2 12 -4 16
-15 9 0 27 17 21 8 -4 26 -9 39 -12z m-3256 -9 l25 -15 -30 6 c-16 4 -37 10
-45 15 -12 7 -11 8 5 8 11 0 31 -6 45 -14z m400 -29 c0 -8 -6 -16 -12 -19 -7
-2 -10 -8 -6 -12 5 -5 19 -3 33 3 43 20 67 15 63 -10 -3 -21 -8 -23 -53 -20
-27 2 -57 10 -65 17 -10 9 -20 11 -30 5 -23 -14 -32 -12 -28 7 2 10 20 22 43
29 53 16 55 16 55 0z m-236 -15 c3 -4 -6 -6 -19 -3 -14 2 -25 6 -25 8 0 8 39
4 44 -5z m3048 -61 c45 -5 84 -10 85 -10 2 0 3 -13 3 -29 0 -38 -11 -41 -134
-41 -145 0 -257 11 -253 24 2 6 32 25 68 43 69 35 64 34 231 13z m-1116 -19
c-10 -15 12 -61 29 -61 23 0 15 -34 -9 -38 -10 -2 -29 2 -42 8 -18 10 -29 10
-53 0 -29 -11 -51 -8 -51 9 0 4 21 19 46 32 26 13 52 31 58 41 6 10 14 18 19
18 4 0 6 -4 3 -9z m614 -70 c0 -11 -31 -24 -38 -16 -3 3 1 5 9 5 11 0 11 2 -1
10 -12 8 -11 10 8 10 12 0 22 -4 22 -9z m80 -11 c0 -5 -7 -10 -15 -10 -8 0
-15 5 -15 10 0 6 7 10 15 10 8 0 15 -4 15 -10z m1136 -1977 c12 -3 32 0 44 7
17 9 28 9 51 0 23 -10 35 -10 58 0 23 9 34 9 51 0 29 -15 16 -24 -62 -41 -79
-18 -77 -42 15 -136 32 -33 47 -56 42 -62 -21 -18 -151 -54 -200 -54 -77 0
-130 36 -156 107 -7 20 -21 44 -31 52 -24 23 -78 3 -131 -48 -23 -22 -64 -56
-92 -76 -69 -50 -152 -130 -176 -169 -24 -38 -65 -47 -56 -13 4 15 0 20 -14
20 -16 0 -18 -3 -9 -19 9 -18 6 -20 -27 -23 -27 -2 -38 -8 -37 -19 1 -11 -7
-15 -27 -14 -44 3 -35 -18 22 -55 47 -30 55 -32 82 -22 50 19 64 -8 26 -53
-19 -21 -28 -23 -63 -19 -23 3 -60 1 -84 -4 -32 -8 -42 -7 -39 1 2 7 15 13 30
15 26 3 44 32 32 52 -3 5 -17 10 -29 10 -27 0 -53 -25 -36 -35 35 -22 -16 -34
-65 -15 -23 9 -26 8 -21 -5 3 -8 2 -15 -2 -15 -4 0 -8 -15 -9 -34 -1 -32 0
-33 23 -22 16 8 19 12 9 14 -8 2 -15 10 -15 19 0 11 6 14 23 9 12 -3 29 -6 37
-6 13 0 13 -1 0 -10 -13 -8 -12 -10 3 -10 9 0 17 -4 17 -10 0 -5 -10 -10 -22
-10 -36 0 -14 -10 26 -12 27 -1 36 -6 36 -18 0 -13 -6 -16 -25 -12 -14 2 -25
9 -25 14 0 5 -4 6 -10 3 -15 -10 -12 -23 8 -28 9 -2 6 -3 -8 -2 -14 1 -34 5
-45 9 -18 7 -18 6 -2 -4 16 -11 16 -12 0 -35 l-18 -23 -21 20 c-26 24 -144 32
-151 11 -3 -7 -13 -13 -23 -13 -10 0 -20 -9 -23 -20 -5 -21 -30 -29 -25 -7 3
15 -24 77 -34 77 -4 0 -5 -7 -1 -15 3 -9 -3 -25 -12 -36 -14 -15 -26 -18 -52
-13 -26 5 -34 2 -40 -12 -4 -10 -2 -19 5 -22 7 -2 12 -9 12 -15 0 -5 -3 -8 -6
-5 -3 4 -19 2 -35 -2 -22 -7 -29 -5 -29 5 0 8 7 18 16 23 21 12 10 32 -17 32
-13 0 -19 -7 -19 -21 0 -19 -4 -21 -30 -15 -19 3 -29 2 -25 -4 3 -6 -3 -10
-14 -10 -11 0 -23 5 -26 10 -3 5 -2 10 3 10 18 0 72 54 72 72 0 13 -10 21 -31
25 -18 3 -28 11 -25 18 5 14 -59 26 -72 14 -4 -4 -30 -11 -59 -15 -48 -6 -51
-5 -47 14 8 27 -5 32 -65 25 -57 -6 -56 -20 1 -32 19 -5 32 -13 30 -20 -1 -7
5 -19 15 -26 17 -13 17 -14 1 -20 -27 -11 -53 -1 -51 19 1 13 -2 15 -10 7 -6
-6 -18 -11 -26 -10 -11 0 -12 2 -3 6 23 9 13 25 -13 19 -20 -5 -23 -3 -18 10
4 11 -1 22 -12 30 -17 13 -17 15 12 25 58 20 49 45 -13 40 -12 -1 -27 5 -34
14 -8 10 -9 15 -1 15 6 0 11 9 11 20 0 11 -5 20 -11 20 -5 0 -8 4 -5 9 3 5 21
9 40 9 26 0 33 -4 29 -14 -6 -17 -5 -17 35 -3 41 14 46 34 16 58 -38 30 -22
50 44 53 43 2 58 7 60 19 2 13 -3 15 -25 12 -24 -4 -25 -3 -10 7 9 6 15 15 12
21 -11 16 -44 10 -57 -11 -7 -11 -17 -20 -22 -20 -5 0 -15 -8 -22 -17 -12 -17
-13 -17 -20 2 -10 26 -23 35 -56 35 -26 0 -28 3 -28 40 0 27 4 40 13 39 28 -4
37 2 37 26 0 20 -5 25 -25 25 -39 0 -29 15 17 27 46 12 59 10 40 -9 -8 -8 -8
-14 1 -22 18 -17 57 -17 57 0 0 8 9 23 19 33 18 18 18 20 3 26 -9 3 -18 2 -19
-2 -3 -7 -103 -3 -131 5 -4 1 -7 26 -7 55 0 51 0 52 29 50 20 -2 37 5 52 22
22 23 22 24 27 3 5 -16 11 -19 29 -14 13 3 35 6 51 6 36 0 34 12 -4 29 -38 17
-35 19 15 13 26 -3 40 -10 43 -22 4 -16 23 -17 231 -16 129 0 281 -5 351 -12
82 -9 166 -11 243 -6 l118 7 0 43 c0 46 13 63 35 44 11 -9 22 -9 50 1 29 11
40 11 56 1 16 -10 27 -10 55 0 25 9 42 9 62 2 19 -7 35 -7 51 0 15 7 35 6 62
-1 22 -6 42 -6 45 -2 7 12 61 11 82 0 12 -6 26 -5 42 5 14 7 32 11 40 7 8 -3
25 -8 36 -10z m304 7 c0 -5 -7 -10 -16 -10 -8 0 -12 5 -9 10 3 6 10 10 16 10
5 0 9 -4 9 -10z m-3385 -21 c4 -6 22 -8 46 -4 l39 7 0 -34 c0 -19 -2 -37 -6
-40 -5 -6 -128 43 -141 56 -9 9 16 26 39 26 9 0 20 -5 23 -11z m3496 -128 c8
-1 29 -49 29 -66 0 -18 -142 -10 -187 11 -38 17 -39 21 -16 46 14 16 28 18 92
14 42 -2 79 -5 82 -5z m-4471 -116 c0 -8 -5 -15 -11 -15 -5 0 -7 -5 -3 -11 5
-8 10 -6 16 5 5 9 14 16 20 16 6 0 3 -9 -7 -20 -22 -24 -57 -28 -49 -5 4 11
-1 15 -17 16 -22 1 -22 2 6 14 39 18 45 18 45 0z m70 -5 c0 -5 -5 -10 -11 -10
-5 0 -7 5 -4 10 3 6 8 10 11 10 2 0 4 -4 4 -10z m730 -8 c-1 -17 -50 -41 -96
-47 -47 -6 -60 -10 -114 -33 -52 -22 -70 -24 -70 -8 0 9 -5 16 -11 16 -6 0 -8
-9 -4 -20 7 -22 -13 -28 -32 -9 -18 18 8 57 50 74 45 18 55 19 39 3 -7 -7 -12
-18 -12 -26 0 -23 71 -5 95 23 15 19 32 25 70 27 28 2 58 4 68 5 9 1 17 -1 17
-5z m677 -94 c-2 -13 -4 -3 -4 22 0 25 2 35 4 23 2 -13 2 -33 0 -45z m-547 34
c0 -4 -18 -13 -40 -20 -30 -9 -46 -9 -61 -1 -27 14 -21 19 38 28 48 7 63 6 63
-7z m730 -32 c0 -4 -7 -10 -15 -14 -11 -4 -15 2 -15 21 0 21 2 24 15 13 8 -7
15 -16 15 -20z m117 -17 c-3 -10 -5 -2 -5 17 0 19 2 27 5 18 2 -10 2 -26 0
-35z m2269 32 c-22 -16 -46 -20 -46 -7 0 15 13 22 39 22 25 -1 25 -1 7 -15z
m534 0 c-7 -8 -16 -12 -21 -9 -5 3 -9 -3 -10 -13 0 -11 -3 -13 -6 -5 -6 16 15
42 34 42 13 0 13 -3 3 -15z m-4255 -5 c-3 -5 -12 -7 -20 -3 -21 7 -19 13 6 13
11 0 18 -4 14 -10z m1522 -12 c-3 -8 -6 -5 -6 6 -1 11 2 17 5 13 3 -3 4 -12 1
-19z m-307 -9 c0 -5 -4 -9 -10 -9 -5 0 -10 7 -10 16 0 8 5 12 10 9 6 -3 10
-10 10 -16z m-760 -15 c0 -17 -5 -17 -31 -3 -11 5 -17 14 -14 19 8 13 45 0 45
-16z m-140 -3 c0 -11 5 -21 10 -23 7 -2 5 -17 -5 -41 -17 -41 -8 -48 20 -17
12 14 22 17 30 10 6 -5 15 -8 19 -5 3 3 2 -1 -4 -7 -19 -22 -12 -48 14 -48 13
0 29 -7 36 -15 7 -8 18 -15 25 -15 20 0 45 -34 36 -49 -5 -7 -13 -11 -19 -7
-5 3 -9 -2 -8 -12 1 -13 -8 -18 -43 -20 -33 -2 -51 -10 -69 -29 -12 -14 -26
-22 -30 -18 -4 4 0 12 8 19 8 6 20 20 26 31 6 11 21 22 34 25 13 3 25 11 28
18 4 14 -3 15 -45 3 -21 -6 -35 -5 -43 2 -8 9 -15 8 -24 -5 -7 -10 -20 -18
-28 -18 -20 0 -62 -46 -53 -59 4 -7 -8 -11 -34 -11 -23 0 -41 5 -41 10 0 6 -7
10 -15 10 -8 0 -15 5 -15 10 0 6 7 10 16 10 10 0 14 6 11 14 -7 17 17 41 54
55 22 8 28 18 33 56 5 29 14 50 27 58 23 14 25 33 3 45 -14 8 -14 10 1 25 22
23 45 21 45 -2z m3288 -5 c9 -45 72 -74 72 -33 0 13 84 57 109 57 7 0 -4 -15
-23 -34 -20 -18 -36 -38 -36 -45 0 -6 -10 -9 -22 -7 -26 4 -47 -19 -48 -51 0
-13 -5 -23 -11 -23 -14 0 -39 25 -39 39 0 6 -4 11 -10 11 -5 0 -10 11 -10 24
0 13 -6 29 -14 36 -8 6 -12 18 -9 26 7 18 -2 18 -35 -3 l-27 -17 19 22 c25 29
79 27 84 -2z m-3558 5 c0 -13 -28 -22 -35 -11 -3 4 1 11 7 13 20 8 28 8 28 -2z
m40 -30 c-8 -16 -6 -21 8 -25 9 -2 1 -2 -19 1 -35 5 -36 4 -45 -39 l-9 -43
-23 23 -22 22 29 30 c15 17 33 30 40 30 6 0 11 5 11 10 0 6 9 10 20 10 17 0
19 -3 10 -19z m3403 2 c-7 -2 -19 -2 -25 0 -7 3 -2 5 12 5 14 0 19 -2 13 -5z
m-1515 -9 c12 -4 22 -12 22 -19 0 -7 6 -15 12 -17 22 -8 -15 -35 -42 -32 -14
1 -29 3 -33 3 -5 1 -5 6 -1 12 3 6 15 8 26 6 14 -4 18 -1 16 11 -2 9 -13 18
-26 20 -12 2 -22 8 -22 13 0 10 15 11 48 3z m-516 -49 c3 -14 1 -28 -3 -31 -5
-3 -9 9 -9 25 0 38 6 40 12 6z m2021 10 c26 -3 47 -9 47 -13 -1 -15 -28 -42
-43 -42 -20 0 -30 -16 -23 -36 4 -12 10 -13 26 -4 11 6 20 17 20 25 0 15 29
35 51 35 8 0 5 -8 -6 -20 -10 -11 -16 -22 -14 -24 11 -9 67 -14 79 -6 17 10
50 -5 50 -23 0 -7 -9 -20 -20 -30 -11 -9 -20 -14 -20 -12 0 3 -10 1 -21 -6
l-21 -11 23 -12 c16 -8 26 -9 31 -2 5 7 17 7 40 -1 18 -6 66 -12 107 -12 72
-1 101 -9 73 -18 -7 -3 -33 -22 -57 -43 -41 -36 -47 -38 -80 -29 -19 6 -40 7
-45 4 -6 -4 -25 3 -43 14 -31 19 -35 19 -55 5 -12 -8 -27 -12 -32 -9 -6 3 -10
1 -10 -5 0 -6 -4 -8 -10 -5 -5 3 -20 -5 -32 -18 -37 -38 -56 -40 -107 -10 -63
37 -69 45 -77 94 -4 24 -12 49 -18 55 -18 17 -46 13 -46 -8 0 -10 -6 -21 -13
-24 -8 -3 -11 -17 -9 -39 5 -40 3 -42 -26 -16 -33 28 -27 52 27 105 45 44 55
49 103 53 73 6 98 12 98 23 0 6 -8 10 -17 10 -29 0 -93 20 -93 29 0 12 72 39
95 35 11 -1 41 -6 68 -9z m-2347 -41 c-3 -8 -11 -14 -18 -13 -10 0 -10 2 0 6
6 2 13 17 13 31 1 18 3 21 6 9 3 -10 2 -25 -1 -33z m80 10 c-4 -12 -10 -14
-17 -7 -5 5 -7 17 -3 27 4 12 10 14 17 7 5 -5 7 -17 3 -27z m101 14 c-3 -8 -6
-5 -6 6 -1 11 2 17 5 13 3 -3 4 -12 1 -19z m43 -3 c0 -14 -4 -25 -9 -25 -5 0
-8 8 -6 18 2 9 4 20 4 25 2 19 11 4 11 -18z m-403 -22 c-3 -10 -5 -4 -5 12 0
17 2 24 5 18 2 -7 2 -21 0 -30z m-820 13 c8 -8 -5 -36 -17 -36 -6 0 -8 5 -5
10 4 6 -7 10 -24 10 -31 0 -42 14 -18 23 13 6 57 1 64 -7z m716 -1 c-3 -9 -8
-14 -10 -11 -3 3 -2 9 2 15 9 16 15 13 8 -4z m212 4 c11 -16 1 -19 -13 -3 -7
8 -8 14 -3 14 5 0 13 -5 16 -11z m322 -11 c-3 -8 -6 -5 -6 6 -1 11 2 17 5 13
3 -3 4 -12 1 -19z m2353 1 c-7 -11 -14 -18 -17 -15 -8 8 5 36 17 36 7 0 7 -6
0 -21z m440 -27 c0 -20 -59 -77 -91 -87 -11 -4 -52 3 -91 16 l-72 22 34 28
c29 24 43 29 109 32 42 1 84 4 94 5 10 1 17 -5 17 -16z m-3542 -34 c2 -12 -3
-14 -23 -11 -27 6 -33 18 -12 26 18 8 32 2 35 -15z m-698 -8 c0 -5 -4 -10 -10
-10 -5 0 -10 5 -10 10 0 6 5 10 10 10 6 0 10 -4 10 -10z m897 -57 c-3 -10 -5
-4 -5 12 0 17 2 24 5 18 2 -7 2 -21 0 -30z m233 11 c0 -14 -4 -23 -9 -20 -5 3
-7 15 -4 26 7 28 13 25 13 -6z m430 -1 c0 -21 -3 -24 -9 -14 -5 8 -7 20 -4 28
8 21 13 15 13 -14z m117 -10 c-3 -10 -5 -4 -5 12 0 17 2 24 5 18 2 -7 2 -21 0
-30z m-370 10 c2 -6 -3 -13 -12 -16 -10 -5 -15 0 -15 14 0 21 21 22 27 2z
m163 2 c0 -8 -7 -15 -15 -15 -26 0 -18 20 13 29 1 1 2 -6 2 -14z m290 0 c0 -8
-4 -15 -10 -15 -5 0 -10 7 -10 15 0 8 5 15 10 15 6 0 10 -7 10 -15z m65 5 c3
-5 1 -10 -4 -10 -6 0 -11 5 -11 10 0 6 2 10 4 10 3 0 8 -4 11 -10z m52 -12
c-3 -8 -6 -5 -6 6 -1 11 2 17 5 13 3 -3 4 -12 1 -19z m2023 2 c0 -5 -4 -10
-10 -10 -5 0 -10 5 -10 10 0 6 5 10 10 10 6 0 10 -4 10 -10z m-3107 -31 c-7
-7 -20 -8 -30 -5 -17 7 -17 8 1 22 23 17 48 2 29 -17z m-198 -18 c6 -11 -33
-26 -43 -16 -4 3 0 10 8 15 19 12 27 12 35 1z m-625 -27 c0 -2 -7 -4 -15 -4
-8 0 -15 4 -15 10 0 5 7 7 15 4 8 -4 15 -8 15 -10z m818 0 c4 -4 1 -9 -6 -11
-10 -4 -10 -8 -1 -19 6 -8 8 -14 4 -14 -4 0 -2 -6 4 -14 17 -20 3 -46 -25 -46
-13 0 -24 -4 -24 -10 0 -5 3 -9 8 -9 45 7 40 -11 -12 -48 -55 -39 -77 -31 -69
27 5 33 2 43 -17 58 l-23 19 39 40 c33 35 43 40 77 37 21 -1 42 -6 45 -10z
m-581 -19 c3 -9 3 -18 1 -21 -9 -9 -38 8 -38 22 0 19 29 18 37 -1z m-77 -23
c0 -5 -7 -9 -15 -9 -8 0 -15 4 -15 9 0 4 7 8 15 8 8 0 15 -4 15 -8z m3977 2
c-3 -3 -12 -4 -19 -1 -8 3 -5 6 6 6 11 1 17 -2 13 -5z m-3597 -24 c0 -16 -7
-20 -35 -20 -25 0 -41 -7 -57 -25 -18 -21 -28 -24 -55 -19 -39 7 -41 2 -12
-27 21 -21 21 -22 3 -32 -11 -6 -23 -15 -27 -21 -6 -7 -7 -5 -4 5 13 40 -57
74 -102 50 -9 -5 -23 -6 -30 -1 -17 10 -6 44 12 37 7 -3 24 1 37 8 19 10 28
11 39 2 10 -9 18 -6 35 15 21 25 21 25 41 6 19 -19 20 -19 29 1 6 15 19 21 40
21 17 0 38 5 46 10 24 16 40 12 40 -10z m-794 -27 c-10 -10 -19 5 -10 18 6 11
8 11 12 0 2 -7 1 -15 -2 -18z m129 -9 c22 -9 49 -13 66 -9 40 9 36 -3 -7 -21
-38 -16 -78 -12 -126 12 -62 32 -3 48 67 18z m323 -58 c-3 -24 -5 -25 -20 -14
-12 10 -14 19 -7 37 12 31 32 14 27 -23z m2537 4 c3 -5 -3 -10 -14 -10 -12 0
-21 5 -21 10 0 6 6 10 14 10 8 0 18 -4 21 -10z m-2835 -4 c0 -3 -4 -8 -10 -11
-5 -3 -10 -1 -10 4 0 6 5 11 10 11 6 0 10 -2 10 -4z m540 -17 c0 -5 -7 -9 -15
-9 -15 0 -20 12 -9 23 8 8 24 -1 24 -14z m-345 1 c3 -5 -1 -10 -9 -10 -8 0
-18 5 -21 10 -3 6 1 10 9 10 8 0 18 -4 21 -10z m1995 0 c0 -5 -5 -10 -11 -10
-5 0 -7 5 -4 10 3 6 8 10 11 10 2 0 4 -4 4 -10z m-2040 -20 c0 -5 -5 -10 -11
-10 -5 0 -7 5 -4 10 3 6 8 10 11 10 2 0 4 -4 4 -10z m1445 -210 c3 -5 -3 -10
-15 -10 -12 0 -18 5 -15 10 3 6 10 10 15 10 5 0 12 -4 15 -10z m715 -35 c0 -8
-4 -15 -10 -15 -5 0 -7 7 -4 15 4 8 8 15 10 15 2 0 4 -7 4 -15z m-1530 -15 c0
-5 -2 -10 -4 -10 -3 0 -8 5 -11 10 -3 6 -1 10 4 10 6 0 11 -4 11 -10z m1957
-122 c-3 -8 -6 -5 -6 6 -1 11 2 17 5 13 3 -3 4 -12 1 -19z m1108 -62 c7 3 16
1 19 -4 7 -12 88 6 98 22 5 8 8 7 8 -1 0 -7 6 -13 14 -13 23 0 26 -26 5 -44
-23 -20 -49 -21 -49 -2 0 8 -7 16 -15 19 -11 5 -12 1 -5 -17 5 -13 6 -34 3
-46 -4 -16 0 -23 16 -27 23 -6 28 -19 9 -26 -10 -3 -10 -8 1 -21 12 -14 12
-18 -5 -31 -32 -24 -51 -19 -51 16 0 33 -15 49 -48 49 -11 0 -31 7 -44 16 -18
13 -28 14 -47 6 -13 -6 -26 -8 -28 -3 -5 7 17 28 82 81 6 6 13 21 13 33 1 16
3 17 6 5 2 -9 10 -15 18 -12z m-2155 -90 c0 -19 -45 23 -48 45 -2 23 -2 23 23
-6 14 -16 25 -34 25 -39z m2424 55 c3 -5 -1 -11 -9 -15 -15 -6 -29 7 -18 18 9
9 21 8 27 -3z m101 -11 c4 -6 2 -17 -5 -25 -7 -9 -8 -15 0 -20 19 -11 11 -35
-12 -35 -25 -1 -68 -32 -68 -49 0 -9 -5 -9 -21 -1 -15 8 -24 8 -34 0 -24 -20
-29 10 -4 31 12 10 17 19 10 19 -7 0 -9 5 -6 10 9 15 25 12 25 -5 0 -24 25
-17 41 12 11 20 11 27 2 30 -23 8 -14 22 20 32 43 12 45 13 52 1z m-2340 -10
c15 0 14 -22 -2 -41 -6 -8 -14 -28 -17 -46 -6 -25 -14 -33 -38 -38 -17 -4 -35
-2 -41 4 -6 6 -19 11 -29 11 -10 0 -18 3 -18 6 0 14 107 112 118 108 8 -2 20
-4 27 -4z m2124 -41 c-9 -5 -15 -4 -18 2 -2 6 3 15 10 20 9 5 15 4 18 -2 2 -6
-3 -15 -10 -20z m51 -18 c0 -6 -4 -13 -10 -16 -5 -3 -10 1 -10 9 0 9 5 16 10
16 6 0 10 -4 10 -9z m-340 -25 c0 -8 -4 -18 -10 -21 -26 -16 -7 -26 35 -19 36
5 50 3 65 -11 20 -18 20 -18 0 -35 -12 -10 -29 -16 -40 -13 -11 3 -26 0 -34
-6 -19 -16 -102 -16 -121 -1 -22 18 -19 26 21 49 27 16 34 26 29 40 -4 14 0
21 12 24 33 9 43 7 43 -7z m-3315 -58 c17 -7 32 -15 35 -18 3 -4 21 -12 40
-20 60 -23 133 -80 103 -80 -21 1 -86 29 -93 40 -5 8 -15 10 -26 5 -30 -12
-64 -14 -64 -4 0 5 7 12 15 15 8 4 15 9 15 14 0 17 -140 63 -165 54 -7 -3 -16
0 -21 7 -10 16 119 6 161 -13z m2250 12 c3 -5 1 -10 -4 -10 -6 0 -11 5 -11 10
0 6 2 10 4 10 3 0 8 -4 11 -10z m-2406 -17 c17 -10 31 -24 31 -30 0 -7 7 -13
16 -13 20 0 13 -24 -9 -28 -11 -2 -17 3 -17 14 0 14 -7 16 -38 11 -36 -4 -39
-3 -34 19 3 19 0 24 -17 24 -11 0 -21 5 -21 10 0 16 56 11 89 -7z m2338 -15
c-3 -8 -6 -5 -6 6 -1 11 2 17 5 13 3 -3 4 -12 1 -19z m-2327 -57 c0 -12 -20
-25 -27 -18 -7 7 6 27 18 27 5 0 9 -4 9 -9z m3262 -46 c1 -11 18 -28 37 -37
19 -9 39 -22 44 -27 17 -17 -15 -13 -37 4 -27 21 -106 20 -106 0 0 -9 -7 -18
-15 -21 -22 -9 -18 -42 5 -49 18 -6 18 -8 5 -21 -17 -18 -37 -10 -29 11 4 9
-3 16 -20 21 -14 3 -26 13 -26 21 0 12 -3 13 -14 4 -10 -9 -16 -9 -21 -1 -9
15 11 37 40 44 13 3 33 20 45 36 12 17 30 30 40 30 10 0 22 5 26 11 8 13 21 0
26 -26z m203 5 c-3 -5 -13 -10 -21 -10 -8 0 -12 5 -9 10 3 6 13 10 21 10 8 0
12 -4 9 -10z m-3340 -10 c3 -5 2 -10 -4 -10 -5 0 -13 5 -16 10 -3 6 -2 10 4
10 5 0 13 -4 16 -10z m289 -58 c20 -24 36 -51 35 -60 0 -13 -3 -11 -11 6 -6
12 -15 22 -20 22 -4 0 -8 5 -8 12 0 7 -12 25 -27 41 -16 16 -23 28 -17 26 7
-2 28 -24 48 -47z m-618 -68 c-8 -20 -43 -18 -55 4 -6 9 -11 11 -11 5 0 -21
-16 -15 -17 7 -1 11 8 27 20 35 20 14 23 13 45 -11 13 -14 21 -32 18 -40z
m3701 36 c12 -17 11 -18 -9 -11 -25 9 -36 31 -16 31 7 0 19 -9 25 -20z m-3182
-20 c3 -5 1 -10 -4 -10 -6 0 -11 5 -11 10 0 6 2 10 4 10 3 0 8 -4 11 -10z
m160 -40 c3 -5 1 -10 -4 -10 -6 0 -11 5 -11 10 0 6 2 10 4 10 3 0 8 -4 11 -10z"/>
<path d="M2480 4066 c0 -2 7 -7 16 -10 8 -3 12 -2 9 4 -6 10 -25 14 -25 6z"/>
<path d="M3008 1790 c-34 -9 -34 -29 1 -36 17 -4 31 -11 31 -16 0 -12 75 -4
118 12 25 9 30 15 22 25 -12 14 -132 24 -172 15z"/>
<path d="M2920 1771 c0 -6 5 -13 10 -16 6 -3 10 1 10 9 0 9 -4 16 -10 16 -5 0
-10 -4 -10 -9z"/>
<path d="M3330 1745 c28 -16 80 -20 80 -6 0 4 -17 11 -37 15 -59 9 -71 7 -43
-9z"/>
<path d="M2685 1741 c-3 -6 -17 -11 -31 -11 -13 0 -24 -4 -24 -10 0 -5 -7 -10
-16 -10 -9 0 -13 -5 -10 -12 3 -7 9 -21 12 -30 4 -11 17 -18 32 -18 24 0 24 1
8 19 -16 17 -15 19 8 35 14 9 33 16 41 16 9 0 15 5 13 12 -6 16 -25 21 -33 9z"/>
<path d="M2755 1740 c3 -5 10 -10 16 -10 5 0 9 5 9 10 0 6 -7 10 -16 10 -8 0
-12 -4 -9 -10z"/>
<path d="M3208 1743 c-21 -5 -24 -23 -4 -23 7 0 28 3 47 7 28 5 30 7 14 14
-22 8 -32 9 -57 2z"/>
<path d="M2815 1730 c-3 -5 0 -10 8 -10 20 0 62 -23 65 -35 1 -5 9 -10 17 -10
8 0 20 -6 27 -13 9 -9 9 -12 -2 -12 -20 0 -7 -10 29 -20 21 -6 35 -5 43 3 7 7
24 13 38 14 47 4 100 15 99 22 -1 15 -18 45 -18 34 -1 -7 -10 -13 -20 -13 -11
0 -23 -5 -26 -10 -4 -6 -14 -10 -23 -9 -10 2 -28 -1 -41 -5 -33 -11 -46 12
-19 34 16 13 18 18 7 22 -19 7 -79 -10 -79 -22 0 -6 -4 -10 -10 -10 -5 0 -10
7 -10 15 0 9 -9 15 -25 15 -14 0 -25 5 -25 10 0 6 -6 10 -14 10 -8 0 -18 -4
-21 -10z"/>
<path d="M2744 1709 c-3 -6 0 -15 7 -20 8 -5 -1 -6 -24 -2 -32 5 -37 3 -31
-11 5 -14 18 -17 60 -15 30 2 57 0 61 -4 3 -4 -17 -7 -46 -7 -35 0 -50 -4 -46
-11 5 -7 29 -8 67 -4 58 5 60 5 55 -15 -3 -14 -1 -20 6 -17 19 6 21 49 3 59
-9 5 -14 13 -11 18 8 12 -27 22 -39 10 -5 -5 -15 -10 -20 -10 -6 0 -5 4 3 9
17 11 5 31 -19 31 -10 0 -22 -5 -26 -11z"/>
<path d="M3290 1700 c-12 -8 -9 -10 13 -10 15 0 27 5 27 10 0 13 -20 13 -40 0z"/>
<path d="M3180 1683 c0 -10 4 -14 8 -8 4 6 11 13 16 18 5 4 2 7 -7 7 -10 0
-17 -8 -17 -17z"/>
<path d="M3309 1664 c-11 -14 -10 -16 9 -12 13 1 23 7 23 13 1 17 -17 16 -32
-1z"/>
<path d="M3563 1654 c-7 -20 4 -30 43 -37 28 -5 31 -4 27 18 -3 13 -14 26 -26
29 -32 9 -37 7 -44 -10z"/>
<path d="M2580 1650 c0 -5 5 -10 10 -10 6 0 10 5 10 10 0 6 -4 10 -10 10 -5 0
-10 -4 -10 -10z"/>
<path d="M3248 1653 c6 -2 18 -2 25 0 6 3 1 5 -13 5 -14 0 -19 -2 -12 -5z"/>
<path d="M3370 1650 c0 -5 4 -10 9 -10 6 0 13 5 16 10 3 6 -1 10 -9 10 -9 0
-16 -4 -16 -10z"/>
<path d="M2518 1643 c6 -2 18 -2 25 0 6 3 1 5 -13 5 -14 0 -19 -2 -12 -5z"/>
<path d="M3091 1641 c-16 -10 -6 -31 15 -31 8 0 14 -4 14 -10 0 -13 -17 -13
-25 0 -4 6 -11 8 -16 5 -5 -4 -9 -1 -9 4 0 6 -7 11 -15 11 -23 0 -7 -26 18
-27 12 -1 23 -7 25 -13 2 -5 13 -10 24 -10 23 0 52 26 44 39 -3 5 4 11 16 15
18 4 20 8 11 17 -9 9 -18 8 -38 -5 -24 -16 -28 -16 -38 -2 -8 10 -17 13 -26 7z"/>
<path d="M3433 1643 c-20 -8 -15 -23 7 -23 11 0 20 7 20 15 0 15 -6 17 -27 8z"/>
<path d="M3280 1610 c-9 -17 -6 -24 14 -44 25 -22 25 -24 8 -40 -10 -9 -28
-16 -39 -16 -32 0 -53 -10 -53 -26 0 -17 27 -19 33 -1 2 6 8 8 13 4 5 -4 4
-11 -2 -15 -12 -8 -13 -56 -1 -68 4 -4 7 2 7 13 0 12 7 24 16 27 11 4 14 1 9
-13 -7 -23 26 -34 51 -16 21 15 11 33 -24 46 l-26 10 30 18 c26 16 30 16 41 2
9 -13 8 -17 -5 -23 -16 -6 -16 -7 0 -7 9 -1 20 4 23 9 3 6 18 10 33 10 15 0
36 8 47 16 l20 16 -20 -6 c-28 -8 -91 8 -111 28 -13 13 -14 19 -4 31 7 8 20
15 30 15 20 0 45 26 33 33 -16 10 -65 0 -74 -14 -6 -10 -9 -8 -9 9 0 28 -25
29 -40 2z"/>
<path d="M3515 1620 c-4 -6 3 -10 14 -10 25 0 27 6 6 13 -8 4 -17 2 -20 -3z"/>
<path d="M2547 1599 c-7 -27 18 -36 42 -15 10 9 25 16 34 16 9 0 17 5 17 10 0
6 -20 10 -44 10 -36 0 -45 -4 -49 -21z"/>
<path d="M2677 1613 c-4 -3 -7 -14 -7 -24 0 -22 69 -36 100 -19 12 6 24 9 27
6 8 -8 -7 -26 -23 -26 -8 0 -12 -4 -9 -10 3 -5 -3 -10 -14 -10 -12 0 -21 -4
-21 -10 0 -5 11 -10 25 -10 14 0 25 4 25 8 0 5 16 16 35 25 40 19 46 37 11 37
-13 0 -35 9 -49 20 -24 19 -86 27 -100 13z"/>
<path d="M2910 1609 c0 -5 5 -7 10 -4 6 3 10 8 10 11 0 2 -4 4 -10 4 -5 0 -10
-5 -10 -11z"/>
<path d="M3452 1613 c-18 -7 -4 -23 19 -23 12 0 19 5 17 12 -5 14 -18 18 -36
11z"/>
<path d="M3210 1590 c0 -11 5 -20 10 -20 6 0 10 -7 10 -15 0 -9 9 -15 25 -15
16 0 25 6 25 15 0 8 -3 14 -7 14 -23 -4 -33 3 -33 21 0 11 -7 20 -15 20 -8 0
-15 -9 -15 -20z"/>
<path d="M2870 1580 c0 -5 9 -10 21 -10 11 0 17 5 14 10 -3 6 -13 10 -21 10
-8 0 -14 -4 -14 -10z"/>
<path d="M2953 1583 c-7 -2 -13 -11 -13 -19 0 -9 -11 -14 -30 -15 -57 -3 -108
-31 -110 -61 0 -4 7 -14 16 -23 20 -19 17 -23 -27 -32 -33 -6 -34 -6 -15 13
18 17 18 19 3 22 -9 2 -17 10 -17 18 0 8 -10 14 -22 14 -17 0 -19 -3 -10 -12
21 -21 14 -47 -15 -54 -16 -4 -32 -12 -38 -18 -5 -7 -19 -16 -30 -20 l-20 -7
20 -15 c19 -14 19 -16 3 -28 -10 -7 -15 -16 -11 -19 3 -4 -1 -7 -11 -7 -10 0
-14 -5 -10 -11 7 -11 54 31 54 49 0 5 11 14 25 20 20 9 25 9 25 -3 0 -8 -8
-19 -17 -25 -13 -8 -14 -13 -5 -16 14 -7 16 -34 2 -34 -5 0 -10 -7 -10 -16 0
-13 6 -11 25 10 24 26 85 38 85 16 0 -5 7 -10 15 -10 18 0 20 16 3 24 -7 4 -3
4 9 2 12 -2 24 2 27 10 3 8 11 14 17 14 8 0 8 -4 -1 -15 -10 -12 -9 -15 6 -16
16 0 16 -2 -3 -11 -26 -13 -29 -24 -9 -43 12 -12 16 -12 26 0 7 8 21 15 30 15
10 0 21 6 24 13 3 8 8 7 16 -5 6 -11 23 -18 40 -18 20 0 30 -5 30 -15 0 -17
35 -21 45 -5 9 15 25 12 25 -5 0 -8 9 -15 20 -15 11 0 20 -7 20 -15 0 -8 4
-15 9 -15 10 0 9 39 -2 57 -4 6 0 16 8 23 12 10 13 16 4 26 -7 9 -8 14 -1 14
6 0 12 -5 14 -12 3 -7 12 -9 22 -5 18 7 18 8 1 27 -12 13 -26 18 -39 15 -18
-5 -17 -4 3 8 37 22 9 29 -60 17 -34 -6 -74 -8 -88 -5 l-26 7 24 -26 c18 -19
21 -26 9 -26 -29 0 -78 22 -78 35 0 7 -7 16 -16 19 -23 9 -72 7 -78 -3 -7 -10
-56 -2 -56 10 0 5 10 9 23 10 12 0 16 3 10 6 -16 6 -17 23 -1 23 6 0 20 7 30
17 15 14 22 14 42 4 19 -11 31 -11 62 0 22 7 42 13 46 14 3 0 10 3 14 8 4 4
16 7 26 7 22 0 24 18 3 26 -11 5 -13 10 -5 19 13 16 7 20 -43 29 -32 6 -37 10
-32 27 4 10 5 19 3 18 -2 0 -9 -3 -15 -6z m-180 -220 c-7 -2 -19 -2 -25 0 -7
3 -2 5 12 5 14 0 19 -2 13 -5z m317 -18 c-7 -9 -15 -13 -17 -11 -7 7 7 26 19
26 6 0 6 -6 -2 -15z"/>
<path d="M3608 1583 c6 -2 18 -2 25 0 6 3 1 5 -13 5 -14 0 -19 -2 -12 -5z"/>
<path d="M3015 1569 c-4 -6 -5 -13 -2 -16 7 -7 27 6 27 18 0 12 -17 12 -25 -2z"/>
<path d="M3425 1570 c3 -5 15 -10 26 -10 11 0 17 5 14 10 -3 6 -15 10 -26 10
-11 0 -17 -4 -14 -10z"/>
<path d="M3510 1570 c0 -5 5 -10 10 -10 6 0 10 5 10 10 0 6 -4 10 -10 10 -5 0
-10 -4 -10 -10z"/>
<path d="M3081 1551 c-9 -6 -4 -10 18 -13 24 -4 28 -2 20 9 -13 15 -19 16 -38
4z"/>
<path d="M3384 1543 c10 -11 36 -12 36 -2 0 5 -10 9 -22 9 -12 0 -18 -3 -14
-7z"/>
<path d="M3494 1533 c2 -10 10 -19 19 -21 21 -4 22 5 3 24 -19 19 -25 18 -22
-3z"/>
<path d="M3168 1533 c7 -3 16 -2 19 1 4 3 -2 6 -13 5 -11 0 -14 -3 -6 -6z"/>
<path d="M3115 1490 c3 -5 8 -10 11 -10 2 0 4 5 4 10 0 6 -5 10 -11 10 -5 0
-7 -4 -4 -10z"/>
<path d="M2600 1479 c-19 -8 -21 -12 -11 -18 9 -6 11 -18 7 -35 -5 -21 -3 -26
13 -26 11 0 26 7 35 15 13 13 13 18 0 45 -9 16 -16 30 -17 29 -1 0 -13 -5 -27
-10z"/>
<path d="M2668 1473 c7 -3 16 -2 19 1 4 3 -2 6 -13 5 -11 0 -14 -3 -6 -6z"/>
<path d="M3072 1448 c-17 -17 -15 -23 13 -36 35 -16 118 -4 111 15 -4 8 -6 19
-6 24 0 13 -104 11 -118 -3z"/>
<path d="M3415 1440 c3 -5 8 -10 11 -10 2 0 4 5 4 10 0 6 -5 10 -11 10 -5 0
-7 -4 -4 -10z"/>
<path d="M2960 1410 c0 -12 7 -20 18 -20 14 0 15 2 2 10 -13 9 -13 11 0 20 13
8 12 10 -2 10 -11 0 -18 -8 -18 -20z"/>
<path d="M2890 1410 c0 -5 5 -10 11 -10 5 0 7 5 4 10 -3 6 -8 10 -11 10 -2 0
-4 -4 -4 -10z"/>
<path d="M3218 1383 c7 -3 16 -2 19 1 4 3 -2 6 -13 5 -11 0 -14 -3 -6 -6z"/>
<path d="M3305 1380 c3 -5 8 -10 11 -10 2 0 4 5 4 10 0 6 -5 10 -11 10 -5 0
-7 -4 -4 -10z"/>
<path d="M3370 1380 c0 -5 4 -10 9 -10 6 0 13 5 16 10 3 6 -1 10 -9 10 -9 0
-16 -4 -16 -10z"/>
<path d="M2498 1369 c-26 -15 -22 -27 7 -21 14 2 25 11 25 18 0 16 -8 17 -32
3z"/>
<path d="M2572 1372 c-9 -7 -8 -13 8 -27 18 -16 20 -16 20 -2 0 10 0 20 1 24
1 11 -14 14 -29 5z"/>
<path d="M3244 1341 c17 -18 17 -19 -1 -24 -16 -4 -16 -5 0 -6 24 -1 21 -21
-4 -21 -11 0 -18 -4 -15 -9 9 -14 -37 -21 -53 -8 -12 10 -14 9 -8 -6 4 -10 7
-21 7 -23 0 -12 59 -2 64 11 3 8 15 15 26 15 13 0 18 4 15 11 -4 6 2 13 14 16
26 7 28 23 2 23 -14 0 -18 5 -14 20 4 16 0 20 -22 20 -27 0 -27 -1 -11 -19z"/>
<path d="M2748 1283 c7 -3 16 -2 19 1 4 3 -2 6 -13 5 -11 0 -14 -3 -6 -6z"/>
<path d="M2916 1232 c-9 -15 6 -52 20 -52 17 0 19 20 2 20 -7 0 -5 5 5 11 9 5
17 14 17 19 0 12 -37 13 -44 2z"/>
<path d="M4585 1760 c3 -5 8 -10 11 -10 2 0 4 5 4 10 0 6 -5 10 -11 10 -5 0
-7 -4 -4 -10z"/>
<path d="M4135 1470 c-3 -5 -1 -10 4 -10 6 0 11 5 11 10 0 6 -2 10 -4 10 -3 0
-8 -4 -11 -10z"/>
<path d="M3958 1359 c-7 -21 38 -51 69 -47 45 5 36 33 -10 33 -21 0 -42 7 -46
14 -7 11 -9 11 -13 0z"/>
<path d="M1195 1240 c3 -5 8 -10 11 -10 2 0 4 5 4 10 0 6 -5 10 -11 10 -5 0
-7 -4 -4 -10z"/>
<path d="M1190 1190 c0 -5 5 -10 11 -10 5 0 7 5 4 10 -3 6 -8 10 -11 10 -2 0
-4 -4 -4 -10z"/>
<path d="M4185 530 c3 -5 10 -10 16 -10 5 0 9 5 9 10 0 6 -7 10 -16 10 -8 0
-12 -4 -9 -10z"/>
<path d="M2431 4757 c-6 -8 -8 -16 -5 -20 10 -9 34 4 34 19 0 18 -14 18 -29 1z"/>
<path d="M3865 4700 c-13 -21 65 -42 124 -35 67 8 75 13 60 31 -14 17 -174 20
-184 4z"/>
<path d="M4210 4686 c0 -2 15 -13 33 -24 34 -21 150 -42 132 -24 -24 25 -165
65 -165 48z"/>
<path d="M4018 4622 c-30 -14 -34 -19 -23 -29 11 -10 18 -8 38 7 14 11 30 20
36 20 6 0 11 5 11 10 0 14 -20 12 -62 -8z"/>
<path d="M4400 4605 c0 -8 5 -15 10 -15 6 0 10 7 10 15 0 8 -4 15 -10 15 -5 0
-10 -7 -10 -15z"/>
<path d="M4500 4538 c0 -7 14 -21 30 -30 17 -10 33 -25 37 -35 3 -10 16 -29
29 -43 13 -14 30 -43 37 -65 8 -21 19 -41 25 -43 15 -5 15 9 0 45 -6 15 -12
30 -12 33 -1 7 -47 72 -65 92 -42 46 -56 58 -68 58 -7 0 -13 -6 -13 -12z"/>
<path d="M1693 4472 c-14 -9 -11 -94 4 -99 17 -6 35 34 31 69 -3 33 -15 43
-35 30z"/>
<path d="M1330 4402 c0 -4 10 -9 22 -9 18 -2 20 0 8 7 -18 12 -30 13 -30 2z"/>
<path d="M1367 4363 c-4 -3 -7 -15 -7 -25 0 -17 1 -17 19 -1 11 9 18 20 15 25
-6 10 -18 10 -27 1z"/>
<path d="M4585 4170 c-4 -6 -2 -17 4 -24 6 -7 9 -21 5 -30 -3 -9 -2 -16 4 -16
12 0 22 24 22 56 0 24 -23 33 -35 14z"/>
<path d="M213 1557 c-13 -5 -23 -16 -23 -24 0 -7 -7 -16 -15 -19 -29 -12 -14
-23 28 -21 36 2 42 -1 45 -19 2 -17 12 -23 49 -28 26 -3 49 -4 51 -1 8 8 -6
18 -31 21 -12 1 -25 3 -29 3 -5 1 -8 7 -8 14 0 7 -9 18 -19 24 -12 8 -17 19
-14 31 6 25 -6 32 -34 19z"/>
<path d="M226 1412 c-3 -2 -2 -10 0 -17 3 -7 1 -16 -5 -20 -17 -10 -13 -23 10
-36 15 -8 24 -8 32 0 6 6 19 11 30 11 14 0 18 6 15 27 -3 23 -9 29 -40 34 -21
3 -40 4 -42 1z m74 -27 c0 -8 -7 -15 -15 -15 -9 0 -12 6 -9 15 4 8 10 15 15
15 5 0 9 -7 9 -15z"/>
<path d="M33 1346 c0 -28 21 -37 68 -27 l33 7 -38 22 c-48 28 -63 28 -63 -2z"/>
<path d="M4706 1021 c-7 -11 22 -23 35 -15 5 3 7 10 4 15 -8 12 -32 12 -39 0z"/>
<path d="M4320 910 c-9 -16 -8 -22 5 -26 23 -9 45 3 45 26 0 27 -36 27 -50 0z"/>
<path d="M4265 900 c-3 -5 1 -10 9 -10 9 0 16 5 16 10 0 6 -4 10 -9 10 -6 0
-13 -4 -16 -10z"/>
<path d="M3899 861 c-19 -15 -21 -22 -12 -32 10 -10 14 -7 22 14 6 15 13 27
16 27 4 0 3 -4 0 -10 -3 -5 -2 -10 4 -10 5 0 13 5 17 11 4 8 9 7 15 -2 7 -11
9 -10 9 4 0 23 -41 22 -71 -2z"/>
<path d="M4332 858 c6 -18 28 -21 28 -4 0 9 -7 16 -16 16 -9 0 -14 -5 -12 -12z"/>
<path d="M3830 850 c-8 -5 -26 -10 -39 -10 -32 0 -24 -7 17 -13 17 -3 32 -1
32 4 0 6 5 7 10 4 6 -3 10 1 10 9 0 18 -9 20 -30 6z"/>
<path d="M4010 823 c0 -13 5 -23 10 -23 13 0 13 11 0 30 -8 12 -10 11 -10 -7z"/>
<path d="M3849 728 c-80 -17 -89 -67 -11 -68 17 0 32 -5 32 -11 0 -5 5 -7 10
-4 8 5 7 11 -1 21 -9 11 -9 17 1 28 8 11 25 13 62 9 46 -6 51 -4 45 11 -4 10
-7 20 -7 22 0 7 -83 2 -131 -8z"/>
<path d="M4050 702 c0 -15 5 -19 20 -15 24 6 21 26 -3 31 -11 2 -17 -3 -17
-16z"/>
<path d="M3740 700 c-13 -8 -12 -10 3 -10 9 0 17 5 17 10 0 12 -1 12 -20 0z"/>
<path d="M305 620 c-3 -5 -2 -10 4 -10 5 0 13 5 16 10 3 6 2 10 -4 10 -5 0
-13 -4 -16 -10z"/>
<path d="M1829 616 c-2 -2 -31 -6 -64 -9 -118 -11 -160 -20 -192 -39 -18 -11
-33 -17 -33 -13 0 3 -20 -17 -45 -45 -38 -42 -44 -55 -39 -78 9 -37 23 -62 34
-62 11 0 45 31 51 46 9 21 107 83 142 89 20 4 37 10 37 14 0 4 8 7 18 8 79 6
160 48 149 77 -6 14 -46 23 -58 12z"/>
<path d="M2 490 c0 -14 2 -19 5 -12 2 6 2 18 0 25 -3 6 -5 1 -5 -13z"/>
<path d="M1856 481 c22 -21 52 -17 33 5 -6 8 -21 14 -32 14 -20 0 -20 0 -1
-19z"/>
<path d="M1560 400 c0 -5 9 -10 20 -10 11 0 20 5 20 10 0 6 -9 10 -20 10 -11
0 -20 -4 -20 -10z"/>
<path d="M50 220 c0 -5 5 -10 10 -10 6 0 10 5 10 10 0 6 -4 10 -10 10 -5 0
-10 -4 -10 -10z"/>
<path d="M4745 40 c-16 -11 -40 -20 -52 -20 -12 0 -25 -5 -28 -10 -4 -6 20
-10 64 -10 l71 0 0 30 c0 35 -13 38 -55 10z"/>
<path d="M320 10 c0 -5 7 -10 15 -10 8 0 15 5 15 10 0 6 -7 10 -15 10 -8 0
-15 -4 -15 -10z"/>
</g>
</svg>
